<svg version="1.1" baseProfile="tiny" id="Layer_1" xmlns="http://www.w3.org/2000/svg" x="0" y="0" viewBox="0 0 71.8 416" xml:space="preserve"><g fill="none" stroke="#000" stroke-miterlimit="10"><path stroke-dasharray="4.0016,4.0016" d="M.5 39.3c.1-.3.2-.7.2-1 .2-5.2.3-10.3.7-15.4.3-4.8.9-9.6 2.9-14.1 1.6-3.7 4-6.6 8-7.8 5.5-1.6 10.5.6 13.5 5.8 1.8 3.1 2.6 6.4 3.1 9.9 2 14.4 1.5 28.9 1.1 43.4-.3 13.4-.8 26.8-1.2 40.1-.2 6.7-.3 13.3-.5 20-.2 9.6-.5 19.3-.6 28.9-.2 31.2-.4 62.4-.5 93.6 0 10.3.1 20.7.3 31 .1 10.2.3 20.3.6 30.5.3 11.7.7 23.3 1 35 .3 10.9.8 21.7.7 32.6-.1 8.6-.6 17.1-1.3 25.7-.3 4.3-1.5 8.5-3.9 12.2-1.9 2.9-4.5 4.8-8 5.3-.3 0-.7.2-1 .3h-.5c-.5-.2-.9-.3-1.4-.5-1.5-.6-3.1-1.1-4.4-2-3.2-2.2-4.6-5.6-5.7-9.2-1.8-6.3-2.1-12.8-2.3-19.3-.3-7.2-.3-14.4-.1-21.6.3-13.4.7-26.8 1.1-40.3.2-7.2.4-14.4.5-21.6.2-9.8.4-20 .6-30.1.2-12.5.3-24.9.3-37.4 0-21.8-.1-43.7-.3-65.5-.1-14.6-.4-29.2-.7-43.9-.2-12.1-.6-24.2-.9-36.3C1.5 74.4 1.1 61.2.7 48c0-.3-.1-.7-.2-1v-7.7z"/><path stroke-dasharray="4.0013,4.0013" d="M56.7 415.5c.4-.1.7-.3 1.1-.3 2.8-.4 5.2-1.7 6.8-4 1.3-1.9 2.4-3.9 3.2-6 1.7-4.5 2.1-9.2 2.4-13.9.4-6.3.7-12.7.7-19.1 0-9.3-.3-18.6-.5-27.8-.2-8.9-.6-17.8-.8-26.7-.3-12.1-.6-24.1-.8-36.2l-.3-20.7c-.1-24.6-.1-49.1-.1-73.7 0-15 .3-30 .5-45.1.2-10.9.4-21.7.7-32.6.3-12.7.8-25.4 1.2-38.1.1-4.7.2-9.4.3-14 .3-13.3.6-26.7-1.1-39.9-.5-3.7-1.4-7.3-3.3-10.5-4.8-8.1-15.1-8.4-20-.4-1.5 2.5-2.5 5.5-3.1 8.3-1.6 7-1.8 14.1-1.8 21.2 0 12.5.3 24.9.6 37.4.2 8 .6 16 .8 24 .2 6.4.4 12.8.5 19.2.2 8.5.4 17 .5 25.4l.3 18.7c.1 9.6.2 19.2.2 28.8v45.9c0 12.2-.1 24.4-.3 36.6-.2 13.4-.5 26.8-.8 40.1-.1 5.9-.3 11.7-.5 17.6-.3 10-.6 20.1-.8 30.1-.1 7.3-.1 14.6.1 21.9.2 5.5.6 11.1 1.2 16.6.4 4 1.4 8 3.7 11.5 1.5 2.4 3.5 4.3 6.3 5.1.9.3 1.8.5 2.7.7.1-.1.2-.1.4-.1z"/></g></svg>